<svg width="938" height="820" viewBox="0 0 938 820" fill="none" xmlns="http://www.w3.org/2000/svg">
<g clip-path="url(#clip0)">
<rect width="938" height="820" fill="white"/>
<g clip-path="url(#clip1)">
<path d="M195.992 26.994L200.088 364.913L377.078 451.126L372.982 113.208L195.992 26.994Z" fill="#2F2E41"/>
<path d="M142.208 0L9.95697 271.502L189.403 358.913L185.307 20.994L142.208 0Z" fill="#D93434"/>
<path d="M937.597 381.414L580.403 207.422L584.499 545.34L805.345 652.916L937.597 381.414Z" fill="#57B894"/>
<path d="M388.982 113.208L393.078 451.126L570.069 537.34L565.973 199.422L388.982 113.208Z" fill="#51087D"/>
<path d="M335.5 652.944C317.502 652.944 299.908 647.607 284.943 637.608C269.978 627.609 258.315 613.397 251.427 596.769C244.539 580.141 242.737 561.844 246.249 544.191C249.76 526.539 258.427 510.324 271.153 497.598C283.88 484.871 300.094 476.204 317.747 472.693C335.399 469.182 353.696 470.984 370.324 477.871C386.952 484.759 401.165 496.423 411.164 511.388C421.163 526.352 426.5 543.946 426.5 561.944C426.473 586.071 416.877 609.201 399.817 626.261C382.757 643.321 359.626 652.917 335.5 652.944ZM335.5 472.944C317.897 472.944 300.69 478.164 286.054 487.944C271.418 497.723 260.011 511.623 253.275 527.886C246.539 544.148 244.776 562.043 248.21 579.307C251.644 596.572 260.121 612.43 272.567 624.877C285.014 637.324 300.873 645.8 318.137 649.234C335.401 652.668 353.296 650.906 369.559 644.17C385.821 637.434 399.721 626.026 409.501 611.39C419.28 596.754 424.5 579.547 424.5 561.944C424.473 538.348 415.088 515.726 398.403 499.041C381.718 482.356 359.096 472.971 335.5 472.944V472.944Z" fill="#2F2E41"/>
<path d="M615.5 652.944C597.502 652.944 579.908 647.607 564.943 637.608C549.978 627.609 538.315 613.397 531.427 596.769C524.539 580.141 522.737 561.844 526.249 544.191C529.76 526.539 538.427 510.324 551.153 497.598C563.88 484.871 580.095 476.204 597.747 472.693C615.399 469.182 633.696 470.984 650.324 477.871C666.952 484.759 681.165 496.423 691.164 511.388C701.163 526.352 706.5 543.946 706.5 561.944C706.473 586.071 696.877 609.201 679.817 626.261C662.757 643.321 639.626 652.917 615.5 652.944ZM615.5 472.944C597.897 472.944 580.69 478.164 566.054 487.944C551.418 497.723 540.011 511.623 533.275 527.886C526.538 544.148 524.776 562.043 528.21 579.307C531.644 596.572 540.121 612.43 552.567 624.877C565.014 637.324 580.873 645.8 598.137 649.234C615.401 652.668 633.296 650.906 649.559 644.17C665.821 637.434 679.721 626.026 689.501 611.39C699.28 596.754 704.5 579.547 704.5 561.944C704.473 538.348 695.088 515.726 678.403 499.041C661.718 482.356 639.096 472.971 615.5 472.944V472.944Z" fill="#2F2E41"/>
<path d="M335.5 567.945C338.814 567.945 341.5 565.258 341.5 561.945C341.5 558.631 338.814 555.945 335.5 555.945C332.186 555.945 329.5 558.631 329.5 561.945C329.5 565.258 332.186 567.945 335.5 567.945Z" fill="#2F2E41"/>
<path d="M617.5 567.945C620.814 567.945 623.5 565.258 623.5 561.945C623.5 558.631 620.814 555.945 617.5 555.945C614.186 555.945 611.5 558.631 611.5 561.945C611.5 565.258 614.186 567.945 617.5 567.945Z" fill="#2F2E41"/>
<path d="M344.42 553.337L342.58 552.552L394.845 429.931L543.055 432.955L543.342 433.405L616.342 547.405L614.658 548.484L541.945 434.934L396.155 431.958L344.42 553.337Z" fill="#2F2E41"/>
<path d="M500.125 576.128L538.538 440.672L540.462 441.217L502.875 573.761L603.374 560.952L603.626 562.937L500.125 576.128Z" fill="#2F2E41"/>
<path d="M391.214 460.244L389.786 461.645L492.786 566.645L494.214 565.244L391.214 460.244Z" fill="#2F2E41"/>
<path d="M548.53 408.68L542.54 430.683L544.47 431.208L550.46 409.206L548.53 408.68Z" fill="#2F2E41"/>
<path d="M398.476 424.166L396.524 423.723L401.247 402.945H384.5V389.945H386.5V400.945H403.753L398.476 424.166Z" fill="#2F2E41"/>
<path d="M512.5 388.944C512.5 388.944 512.5 382.945 525.5 385.945C538.5 388.945 578.5 396.944 581.5 395.944C584.5 394.944 583.5 401.944 570.5 404.944C557.5 407.944 542.5 400.944 539.5 398.944C536.5 396.944 512.5 388.944 512.5 388.944Z" fill="#2F2E41"/>
<path d="M476.5 567.945H450.5V577.945H476.5V567.945Z" fill="#2F2E41"/>
<path d="M501.5 594.944C497.544 594.944 493.678 593.771 490.389 591.574C487.1 589.376 484.536 586.253 483.022 582.598C481.509 578.944 481.113 574.922 481.884 571.043C482.656 567.163 484.561 563.599 487.358 560.802C490.155 558.005 493.719 556.1 497.598 555.329C501.478 554.557 505.499 554.953 509.154 556.467C512.808 557.981 515.932 560.544 518.129 563.833C520.327 567.122 521.5 570.989 521.5 574.944C521.494 580.247 519.385 585.331 515.636 589.08C511.886 592.83 506.802 594.939 501.5 594.944V594.944ZM501.5 556.944C497.94 556.944 494.46 558 491.5 559.978C488.54 561.956 486.233 564.767 484.87 568.056C483.508 571.345 483.151 574.964 483.846 578.456C484.54 581.948 486.255 585.155 488.772 587.672C491.289 590.19 494.497 591.904 497.988 592.599C501.48 593.293 505.099 592.937 508.388 591.574C511.677 590.212 514.489 587.905 516.466 584.945C518.444 581.985 519.5 578.505 519.5 574.944C519.494 570.172 517.596 565.597 514.222 562.223C510.847 558.848 506.272 556.95 501.5 556.944Z" fill="#2F2E41"/>
<g filter="url(#filter0_d)">
<path d="M450.5 382.945L445.5 494.944C445.5 494.944 458.5 600.944 455.5 603.944C452.5 606.944 444.5 612.944 450.5 619.944C456.5 626.944 478.5 631.944 479.5 627.944C480.5 623.944 482.5 509.944 482.5 509.944L489.5 374.945L450.5 382.945Z" fill="#0C0C0C"/>
<path opacity="0.2" d="M450.5 382.945L445.5 494.944C445.5 494.944 458.5 600.944 455.5 603.944C452.5 606.944 444.5 612.944 450.5 619.944C456.5 626.944 478.5 631.944 479.5 627.944C480.5 623.944 482.5 509.944 482.5 509.944L489.5 374.945L450.5 382.945Z" fill="#0C0C0C"/>
<path d="M455.5 617.944C455.5 617.944 430.5 636.944 427.5 636.944C424.5 636.944 397.5 645.944 416.5 649.944C435.5 653.944 481.5 651.944 482.5 645.944C483.5 639.944 479.5 621.736 479.5 621.736L455.5 617.944Z" fill="#0C0C0C"/>
<path opacity="0.2" d="M455.5 617.944C455.5 617.944 430.5 636.944 427.5 636.944C424.5 636.944 397.5 645.944 416.5 649.944C435.5 653.944 481.5 651.944 482.5 645.944C483.5 639.944 479.5 621.736 479.5 621.736L455.5 617.944Z" fill="#0C0C0C"/>
<path d="M393.5 298.945C393.5 298.945 382.5 302.945 382.5 305.945C382.5 308.945 372.5 346.945 370.5 348.945C368.5 350.945 367.5 359.945 367.5 359.945C367.5 359.945 357.5 382.945 359.5 382.945C361.5 382.945 378.5 378.945 379.5 382.945C380.5 386.945 388.5 357.945 388.5 357.945L405.5 323.945L393.5 298.945Z" fill="#0C0C0C"/>
<path d="M359.5 386.945C359.5 386.945 362.5 408.944 370.5 410.944C378.5 412.944 370.5 382.945 370.5 382.945L359.5 386.945Z" fill="#0C0C0C"/>
<path d="M385.5 286.945C385.5 286.945 391.5 299.945 394.5 306.945C397.5 313.945 425.5 288.945 425.5 288.945C425.5 288.945 410.5 277.945 410.5 272.945C410.5 267.945 385.5 286.945 385.5 286.945Z" fill="#0C0C0C"/>
<path d="M394.5 296.945C407.755 296.945 418.5 286.199 418.5 272.945C418.5 259.69 407.755 248.945 394.5 248.945C381.245 248.945 370.5 259.69 370.5 272.945C370.5 286.199 381.245 296.945 394.5 296.945Z" fill="#0C0C0C"/>
<path d="M470.5 384.945C470.5 384.945 401.5 424.944 402.5 437.944C403.5 450.944 455.5 521.944 455.5 521.944C455.5 521.944 459.5 542.944 463.5 542.944C467.5 542.944 492.5 551.944 493.5 545.944C494.5 539.944 485.5 532.944 486.5 528.944C487.5 524.944 442.5 451.944 442.5 451.944C442.5 451.944 538.807 415.945 518.654 384.945C498.5 353.945 470.5 384.945 470.5 384.945Z" fill="#0C0C0C"/>
<path d="M472.5 538.944C472.5 538.944 460.5 541.944 458.5 545.944C456.5 549.944 421.5 562.944 431.5 565.944C441.5 568.944 499.5 569.944 501.5 567.944C503.5 565.944 501.5 542.732 493.5 542.838C485.5 542.944 476.5 545.944 472.5 538.944Z" fill="#0C0C0C"/>
<path d="M394.5 309.945L417 282.445C417 282.445 442.5 274.945 453.5 289.945C464.5 304.945 494.5 341.945 504.5 349.945C514.5 357.945 528.5 388.944 523.5 389.944C518.5 390.944 490.5 378.945 479.5 386.945C468.5 394.945 447.5 395.944 446.5 391.944C445.5 387.944 385.5 320.945 385.5 311.945C385.5 302.945 391.894 301.013 391.894 301.013L394.5 309.945Z" fill="#0C0C0C"/>
<path d="M406.585 389.449L376.415 378.783C374.853 378.231 373.139 379.049 372.587 380.611C372.034 382.173 372.853 383.887 374.415 384.44L404.585 395.106C406.147 395.658 407.861 394.84 408.413 393.278C408.966 391.716 408.147 390.002 406.585 389.449Z" fill="#0C0C0C"/>
<path d="M338.5 376.945C338.5 376.945 303.5 386.944 306.5 397.944C309.5 408.944 341.5 384.945 341.5 384.945L338.5 376.945Z" fill="#0C0C0C"/>
<path d="M429.5 289.945C429.5 289.945 415.5 301.945 412.5 315.945C409.5 329.945 394.5 354.945 394.5 354.945L333.5 374.945C333.5 374.945 329.5 393.944 335.5 393.944C341.5 393.944 408.5 379.945 410.5 376.945C412.5 373.945 455.5 316.945 455.5 316.945C455.5 316.945 459.5 285.945 429.5 289.945Z" fill="#0C0C0C"/>
<path d="M375.551 232.325C374.801 232.976 373.902 233.43 372.936 233.646C372.451 233.734 371.951 233.624 371.546 233.341C371.141 233.059 370.864 232.626 370.774 232.138C370.215 233.701 369.176 235.043 367.808 235.97C366.355 236.733 364.109 236.093 363.9 234.457C363.688 235.7 363.142 236.86 362.322 237.812C361.895 238.267 361.306 238.535 360.684 238.556C360.062 238.577 359.457 238.349 359 237.924C359.636 241.425 359.244 245.026 359.443 248.579C359.643 252.133 360.584 255.9 363.249 258.237C367.137 261.645 372.982 260.804 378.096 260.158C378.869 259.995 379.672 260.039 380.423 260.287C382.337 261.108 382.251 263.793 382.276 265.889C382.433 269.567 383.878 273.07 386.355 275.776C388.833 278.482 392.182 280.217 395.809 280.671C397.839 280.987 399.91 280.478 401.567 279.256C403.019 278.016 403.761 275.996 405.424 275.065C408.13 273.55 411.413 275.759 413.391 278.158C415.37 280.556 417.32 283.506 420.385 283.945C424.439 284.526 427.526 280.365 429.041 276.533C431.131 271.163 432.132 265.426 431.986 259.659C431.84 253.893 430.548 248.215 428.189 242.959C419.724 224.374 390.809 221.435 375.551 232.325Z" fill="white"/>
</g>
</g>
<path d="M155.097 779.478C155.097 792.859 150.794 802.974 142.187 809.822C133.579 816.607 121.234 820 105.151 820H52.0947V682.789H100.627C116.774 682.789 129.402 685.868 138.511 692.024C147.621 698.181 152.176 707.668 152.176 720.484C152.176 726.641 150.637 732.358 147.558 737.636C144.48 742.85 139.548 746.808 132.763 749.51C140.742 751.52 146.459 755.384 149.914 761.101C153.369 766.818 155.097 772.944 155.097 779.478ZM100.627 706.726H81.7798V739.992H100.627C115.266 739.992 122.585 734.557 122.585 723.688C122.585 717.657 120.826 713.322 117.308 710.684C113.789 708.045 108.229 706.726 100.627 706.726ZM125.601 779.195C125.601 773.478 124.124 768.954 121.171 765.625C118.219 762.295 113.287 760.63 106.376 760.63H81.7798V796.158H105.151C112.25 796.158 117.433 794.524 120.7 791.257C123.967 787.99 125.601 783.97 125.601 779.195ZM207.211 820H177.62V682.789H207.211V820ZM262.34 820H232.655V682.789H262.34V744.044L274.309 727.081L307.952 682.789H344.328L296.36 743.667L345.458 820H310.308L276.759 766.096L262.34 781.645V820ZM447.99 820H355.354V682.789H447.896V706.726H385.039V737.918H438.566V761.007H385.039V796.158H447.99V820ZM515.653 682.789C531.548 682.789 544.019 686.339 553.065 693.438C562.175 700.474 566.73 710.746 566.73 724.254C566.73 734.369 564.531 742.473 560.133 748.567C555.798 754.599 549.893 759.311 542.417 762.703L571.725 818.586V820H539.966L514.805 770.336H493.601V820H464.01V682.789H515.653ZM515.653 706.726H493.601V746.4H515.559C522.721 746.4 528.092 744.641 531.673 741.123C535.254 737.542 537.045 732.735 537.045 726.704C537.045 720.547 535.286 715.678 531.768 712.097C528.312 708.516 522.941 706.726 515.653 706.726ZM619.032 820H589.441V682.789H619.032V820ZM715.438 783.812C715.438 780.734 714.778 778.064 713.459 775.802C712.14 773.541 709.595 771.404 705.826 769.394C702.119 767.321 696.622 765.122 689.334 762.797C681.041 760.159 673.408 757.017 666.434 753.374C659.46 749.667 653.838 745.081 649.565 739.615C645.356 734.149 643.251 727.395 643.251 719.354C643.251 711.626 645.45 704.904 649.848 699.187C654.246 693.407 660.277 688.915 667.942 685.71C675.669 682.506 684.496 680.904 694.423 680.904C704.601 680.904 713.49 682.695 721.092 686.276C728.694 689.857 734.568 694.852 738.715 701.26C742.924 707.605 745.029 714.956 745.029 723.312H715.532C715.532 717.783 713.773 713.259 710.255 709.741C706.737 706.16 701.302 704.37 693.952 704.37C686.852 704.37 681.544 705.846 678.025 708.799C674.57 711.752 672.842 715.333 672.842 719.542C672.842 723.94 675.135 727.584 679.722 730.474C684.371 733.364 690.936 736.128 699.417 738.767C714.37 743.353 725.71 749.133 733.438 756.106C741.165 763.08 745.029 772.253 745.029 783.624C745.029 795.749 740.505 805.173 731.458 811.896C722.412 818.555 710.286 821.885 695.083 821.885C688.172 821.885 681.387 821.005 674.727 819.246C668.13 817.424 662.131 814.66 656.728 810.953C651.387 807.184 647.115 802.44 643.911 796.723C640.707 791.006 639.105 784.221 639.105 776.368H668.79C668.79 784.472 671.146 790.189 675.858 793.519C680.633 796.849 687.041 798.514 695.083 798.514C702.056 798.514 707.176 797.1 710.443 794.273C713.773 791.446 715.438 787.959 715.438 783.812ZM826.262 820H796.671V706.726H755.583V682.789H867.916V706.726H826.262V820Z" fill="#201F1F"/>
</g>
<defs>
<filter id="filter0_d" x="302.318" y="226" width="226.229" height="434.025" filterUnits="userSpaceOnUse" color-interpolation-filters="sRGB">
<feFlood flood-opacity="0" result="BackgroundImageFix"/>
<feColorMatrix in="SourceAlpha" type="matrix" values="0 0 0 0 0 0 0 0 0 0 0 0 0 0 0 0 0 0 127 0"/>
<feOffset dy="4"/>
<feGaussianBlur stdDeviation="2"/>
<feColorMatrix type="matrix" values="0 0 0 0 0 0 0 0 0 0 0 0 0 0 0 0 0 0 0.25 0"/>
<feBlend mode="normal" in2="BackgroundImageFix" result="effect1_dropShadow"/>
<feBlend mode="normal" in="SourceGraphic" in2="effect1_dropShadow" result="shape"/>
</filter>
<clipPath id="clip0">
<rect width="938" height="820" fill="white"/>
</clipPath>
<clipPath id="clip1">
<rect width="937.597" height="653.445" fill="white"/>
</clipPath>
</defs>
</svg>
